<?xml version="1.0" encoding="UTF-8" standalone="no"?>
<!DOCTYPE svg PUBLIC "-//W3C//DTD SVG 20010904//EN" "http://www.w3.org/TR/2001/REC-SVG-20010904/DTD/svg10.dtd">
<svg version="1.0" xmlns="http://www.w3.org/2000/svg" width="518.000000pt" height="518.000000pt" viewBox="0 0 518.000000 518.000000" preserveAspectRatio="xMidYMid meet">
<metadata>
Created by potrace 1.12, written by Peter Selinger 2001-2015
</metadata>
<g transform="translate(0.000000,518.000000) scale(0.100000,-0.100000)" fill="#003399" stroke="none">
<path d="M2380 4546 c-302 -44 -564 -159 -803 -354 -187 -152 -367 -403 -458 -638 -16 -42 -17 -42 -90 -54 -516 -87 -885 -553 -856 -1080 24 -434 309 -803 722 -933 121 -38 212 -47 481 -47 l244 0 0 370 0 370 980 0 980 0 0 -370 0 -370 244 0 c269 0 360 9 481 47 413 130 698 499 722 933 29 529 -344 997 -859 1080 l-76 12 -36 88 c-20 47 -61 128 -91 179 -230 390 -613 661 -1061 752 -131 26 -392 34 -524 15z m1200 -1275 l0 -158 108 -109 c314 -318 386 -616 164 -680 -105 -31 -193 -4 -242 72 l-28 45 -7 -31 c-8 -38 -48 -86 -88 -107 -36 -18 -138 -20 -182 -3 -37 14 -82 55 -102 94 l-15 29 -15 -32 c-65 -133 -291 -134 -355 -1 l-15 31 -27 -39 c-42 -62 -97 -87 -186 -87 -90 0 -149 28 -184 88 l-23 38 -20 -38 c-37 -72 -113 -102 -213 -83 -67 13 -112 40 -136 85 -10 19 -21 35 -24 35 -3 -1 -14 -20 -25 -43 -27 -57 -75 -80 -169 -81 -80 0 -119 15 -159 63 -14 17 -28 45 -32 63 l-7 32 -19 -35 c-28 -55 -81 -97 -134 -104 -93 -14 -171 14 -219 78 -16 22 -21 43 -21 95 0 60 5 78 46 162 58 120 142 231 269 356 l100 99 0 163 0 162 980 0 980 0 0 -159z"/>
<path d="M1944 3118 c-170 -175 -274 -339 -303 -476 -17 -80 -14 -198 6 -239 27 -58 64 -74 161 -71 79 3 85 5 111 34 23 26 32 52 50 150 37 204 75 300 204 521 36 62 71 122 77 133 10 20 8 20 -112 20 l-124 0 -70 -72z"/>
<path d="M2485 3178 c-16 -44 -87 -518 -88 -588 -3 -156 41 -235 142 -260 182 -43 296 119 278 394 -8 114 -41 309 -67 399 l-21 67 -120 0 c-87 0 -121 -3 -124 -12z"/>
<path d="M2977 3143 c15 -27 37 -64 49 -83 87 -142 131 -264 154 -430 27 -191 54 -256 121 -291 52 -26 141 -26 184 1 52 32 70 87 69 205 -2 129 -31 221 -103 328 -63 93 -184 240 -235 285 l-37 32 -115 0 -115 0 28 -47z"/>
</g>
</svg>